PathFileType	4	(X/Y/Z)	RBDS023\RBDS023runT45.trc
DataRate	CameraRate	NumFrames	NumMarkers	Units	OrigDataRate	OrigDataStartFrame	OrigNumFrames
150.000000	150.000000	4	33	mm	150.000000	2812	4500
Frame#	Time	L.ASIS			L.Heel.Bottom			L.Heel.Lateral			L.Heel.Top			L.Iliac.Crest			L.MT1			L.MT5			L.PSIS			L.Shank.Bottom.Lateral			L.Shank.Bottom.Medial			L.Shank.Top.Lateral			L.Shank.Top.Medial			L.Thigh.Bottom.Lateral			L.Thigh.Bottom.Medial			L.Thigh.Top.Lateral			L.Thigh.Top.Medial			R.ASIS			R.ASY			R.Heel.Bottom			R.Heel.Lateral			R.Heel.Top			R.Iliac.Crest			R.MT1			R.MT5			R.PSIS			R.Shank.Bottom.Lateral			R.Shank.Bottom.Medial			R.Shank.Top.Lateral			R.Shank.Top.Medial			R.Thigh.Bottom.Lateral			R.Thigh.Bottom.Medial			R.Thigh.Top.Lateral			R.Thigh.Top.Medial			
		X1	Y1	Z1	X2	Y2	Z2	X3	Y3	Z3	X4	Y4	Z4	X5	Y5	Z5	X6	Y6	Z6	X7	Y7	Z7	X8	Y8	Z8	X9	Y9	Z9	X10	Y10	Z10	X11	Y11	Z11	X12	Y12	Z12	X13	Y13	Z13	X14	Y14	Z14	X15	Y15	Z15	X16	Y16	Z16	X17	Y17	Z17	X18	Y18	Z18	X19	Y19	Z19	X20	Y20	Z20	X21	Y21	Z21	X22	Y22	Z22	X23	Y23	Z23	X24	Y24	Z24	X25	Y25	Z25	X26	Y26	Z26	X27	Y27	Z27	X28	Y28	Z28	X29	Y29	Z29	X30	Y30	Z30	X31	Y31	Z31	X32	Y32	Z32	X33	Y33	Z33	

2813	18.74666666666667	2414.43402677281	1027.370653725139	940.3767373558259	2417.43701425474	92.66149306807849	1020.466183793405	2442.630625134269	113.8730457156079	979.5156315948765	2428.169685409756	138.5533908133023	1022.804159778743	2347.778567228636	1121.886880486132	884.3729081688203	2643.472659572327	97.56447961518553	1043.151635098789	2603.029793182004	94.3919948003216	933.6373388598601	2240.754196930683	1091.995284091146	978.9398281833013	2501.437022501868	228.7444754648	956.0379214295587	2459.825419390975	233.7975835548719	984.8290446581427	2499.600445369079	307.0741448705542	934.256467708872	2458.529287900284	316.7305650032013	966.5992535324909	2482.409260304737	728.4087053326914	879.7631471864344	2430.742489481676	689.865006550085	909.5944897696879	2410.35685374112	810.5039194260647	866.7697979395446	2360.693445640316	774.4310694763691	895.5608651035708	2402.455036681597	1008.485975522014	1145.070789743304	-2190646602.42633	-3599886922.577625	2916872199.377293	1674.533382659025	303.452271450802	1049.900459312533	1693.724882721323	284.1622359720948	1098.032493462934	1721.505382550332	310.8863119236938	1057.765783790002	2374.850513555145	1109.350159398587	1181.9166060262	1762.815175753499	96.58927560122801	1031.494812088289	1731.347558534012	123.4382097894113	1138.875832040182	2240.593892543318	1094.967965149143	1092.748992170012	1811.278181829264	315.4066522757426	1132.386466110301	1781.827015751176	345.7509201766307	1096.136504846922	1854.23109100319	382.0247156418466	1151.555476961477	1824.6028178605	410.5986878305471	1116.206924148678	2116.899889653227	689.4578898800276	1180.457040991543	2074.702667922318	714.7578014662678	1125.78801224983	2157.450057177124	790.8179654250846	1191.718599602904	2119.550672569706	814.1588177235612	1138.43433742169	
2814	18.75333333333333	2414.571212354163	1029.332896164345	939.945200637378	2452.04648806901	79.55554323464723	1023.311129946889	2475.926544393538	102.0381561298281	982.3142478585393	2458.945317931315	126.063010492931	1025.004714970738	2347.112290430092	1124.492145270724	884.7629330460425	2676.230595591756	103.266899813002	1048.195748004446	2637.534151684562	95.02551852605008	938.2354058437869	2241.41036720268	1094.514127947903	980.011207667697	2524.76102974043	221.9288671626129	958.0128408225261	2482.843261405964	223.9540168813912	986.6518429350589	2517.039364571686	299.5533516588291	935.5454573974994	2475.296860222461	306.3185891199471	967.637803700529	2478.877740038874	725.9286299683158	879.62354343459	2426.732181612317	688.3606127266668	909.7738815102122	2408.330972160086	809.3406189010896	866.7362496104586	2358.183673089728	774.2370639933332	895.8227707390218	2403.646247938892	1010.976319186279	1144.949402579	-2197065130.930709	-3610433528.434681	2925418649.736537	1664.02211267248	323.2769768658833	1048.759661537284	1681.622176671084	303.610531933237	1097.270522011556	1711.208620264083	328.6500733445457	1057.153589336813	2376.566963750645	1113.430036134731	1181.067691663099	1743.75005067118	112.316332660814	1032.986664527789	1711.97517235296	141.0818542741452	1139.396294855338	2242.00849444788	1097.909099563651	1093.69342244072	1800.027707125729	329.4259093889528	1132.602544258089	1771.810321999183	360.8532504640275	1096.370346084923	1845.397432138374	394.4006519042016	1151.720790208628	1817.008442336076	424.0399271800361	1116.353595268687	2116.478923813001	692.9075491744666	1181.166766371247	2074.058657138898	718.8586585358547	1127.041017060034	2157.900674400651	793.8552020716852	1192.82876808488	2119.88076588022	817.7822503400405	1139.891806203013	
2815	18.76	2414.466658993778	1030.819374841521	939.5300734508207	2485.423880205526	68.72244973783529	1025.825170881888	2507.941192363547	92.3599519051552	984.8022477660757	2488.500383602495	115.5452178692912	1026.864635792331	2346.072767127446	1126.293117657442	885.1652162903549	2706.334022657028	110.7662905642249	1052.86892355792	2669.849007989128	97.64537835181591	942.4797776106169	2241.699718651769	1096.14019970781	980.9982222329213	2546.729506639253	216.5600480492816	959.7440336209631	2504.666316494493	215.6320851092948	988.2028490336587	2533.372828604925	293.1010898573587	936.6583856798871	2491.162104298086	297.0142338654859	968.5065731840701	2475.156271577872	722.5786334269752	879.1803304488211	2422.695922673548	686.2268535297677	910.095217980527	2406.203323450018	807.3282450802919	866.355361175937	2355.687160617162	773.3791580137001	896.0946787333605	2404.619502825862	1013.106612404964	1144.950615062627	-2203496184.54694	-3621000713.176565	2933981777.911187	1653.777660752034	343.615211953735	1047.427944346327	1669.762495714576	323.6897184932153	1096.333549559511	1700.987486883137	347.0747514467694	1056.415502530082	2377.588729175831	1116.983264849136	1180.297801464842	1725.334499402744	129.4426368215714	1034.388907503108	1693.134391190166	160.1500796651514	1139.8927044176	2242.985381077128	1100.150162877436	1094.48158871123	1789.29652987764	344.1499467440674	1132.642891600588	1762.504569012777	376.782489293699	1096.468580036702	1837.408918039421	407.1071436113011	1151.713330699816	1810.41278041734	437.9315655907934	1116.397404671549	2117.087397547741	695.094410014904	1181.920970111859	2074.253621364528	721.5761651341858	1128.431294491193	2158.992935041872	795.7696634175442	1194.023155644273	2120.587986655782	820.2002009752199	1141.582561744278	
2816	18.76666666666667	2414.161857768322	1031.826618471962	939.1977018476703	2516.927658458338	59.98330258052403	1028.056291368375	2538.028183748455	84.67531413819681	987.0082799212147	2516.260684073352	106.8601350380908	1028.448136595398	2344.750833741249	1127.261245719569	885.5724312123275	2733.426365537599	119.6122246986145	1056.991485881798	2699.422167248914	101.9028784219629	946.2390132031353	2241.668480232168	1096.835902605655	981.8520444944612	2566.909907369879	212.5005683880673	961.2585956694854	2524.861362602889	208.751916253711	989.5504309040408	2548.244184066109	287.675077876245	937.643804577279	2505.778266436108	288.8321537738527	969.3015748201243	2471.379612966989	718.5410683420574	878.5593555897319	2418.743652454057	683.6012669630082	910.5903289555638	2404.079419997511	804.6160747648335	865.728975235361	2353.293338587362	771.9665023217308	896.3997643363693	2405.409989452481	1014.846829462784	1145.092928210879	-2209939775.48382	-3631588496.860831	2942561600.158189	1644.126425735681	364.5372343345782	1046.10417131805	1658.517023423884	344.3993479956442	1095.385156626548	1691.210656797567	366.1702307295267	1055.700153786102	2377.925967275221	1119.934625272316	1179.643324781346	1707.635143303431	147.7945952892841	1035.700899073609	1675.061367295325	180.4642617736955	1140.417684893262	2243.532370155632	1101.637040803312	1095.070916592103	1779.333822709653	359.5036372522538	1132.586961728478	1754.152531332671	393.399310508137	1096.475887393583	1830.422951881598	420.0856097628267	1151.585973686541	1804.973635664399	452.150678549566	1116.348616123141	2118.597438500881	696.046603817138	1182.693634133067	2075.234425877449	722.9066560754308	1129.84882920961	2160.613920884377	796.5979708276118	1195.237322480107	2121.63280421668	821.4171555242232	1143.373614265802	
